<!-- <svg xmlns="http://www.w3.org/2000/svg" viewBox="0 0 24 24" width="34" height="34" color="black" fill="green">
    <circle cx="12" cy="12" r="10" stroke="currentColor" stroke-width="0" />
    <path d="M9.5 11.2V12.8C9.5 14.32 9.5 15.08 9.96 15.39C10.42 15.7 11.04 15.35 12.28 14.67L13.75 13.87C15.25 13.06 16 12.65 16 12C16 11.35 15.25 10.94 13.75 10.13L12.28 9.33C11.04 8.65 10.42 8.31 9.96 8.61C9.5 8.92 9.5 9.68 9.5 11.2Z" fill="currentColor" />
</svg> -->

<svg xmlns="http://www.w3.org/2000/svg" viewBox="0 0 24 24" width="24" height="24" color="#000000" fill="none">
    <path d="M18.8906 12.846C18.5371 14.189 16.8667 15.138 13.5257 17.0361C10.296 18.8709 8.6812 19.7884 7.37983 19.4196C6.8418 19.2671 6.35159 18.9776 5.95624 18.5787C5 17.6139 5 15.7426 5 12C5 8.2574 5 6.3861 5.95624 5.42132C6.35159 5.02245 6.8418 4.73288 7.37983 4.58042C8.6812 4.21165 10.296 5.12907 13.5257 6.96393C16.8667 8.86197 18.5371 9.811 18.8906 11.154C19.0365 11.7084 19.0365 12.2916 18.8906 12.846Z" stroke="currentColor" stroke-width="1.5" stroke-linejoin="round" />
</svg>
